<svg width="24" height="24" viewBox="0 0 24 24" fill="none" xmlns="http://www.w3.org/2000/svg">
<g clip-path="url(#clip0_263_122)">
<path d="M11 4.702C10.9998 4.56271 10.9583 4.42661 10.8809 4.31086C10.8034 4.19511 10.6934 4.1049 10.5647 4.05163C10.436 3.99835 10.2944 3.98439 10.1577 4.01151C10.0211 4.03863 9.89559 4.10561 9.797 4.204L6.413 7.587C6.2824 7.71838 6.12703 7.82253 5.95589 7.89343C5.78475 7.96432 5.60124 8.00054 5.416 8H3C2.73478 8 2.48043 8.10536 2.29289 8.29289C2.10536 8.48043 2 8.73479 2 9V15C2 15.2652 2.10536 15.5196 2.29289 15.7071C2.48043 15.8946 2.73478 16 3 16H5.416C5.60124 15.9995 5.78475 16.0357 5.95589 16.1066C6.12703 16.1775 6.2824 16.2816 6.413 16.413L9.796 19.797C9.8946 19.8958 10.0203 19.9631 10.1572 19.9904C10.2941 20.0177 10.436 20.0037 10.5649 19.9503C10.6939 19.8968 10.804 19.8063 10.8815 19.6902C10.959 19.5741 11.0002 19.4376 11 19.298V4.702Z" fill="black" stroke="black" stroke-width="2" stroke-linecap="round" stroke-linejoin="round"/>
<path d="M16 9C16.6491 9.86548 17 10.9181 17 12C17 13.0819 16.6491 14.1345 16 15" fill="black"/>
<path d="M16 9C16.6491 9.86548 17 10.9181 17 12C17 13.0819 16.6491 14.1345 16 15" stroke="black" stroke-width="2" stroke-linecap="round" stroke-linejoin="round"/>
<path d="M19.364 18.364C20.1998 17.5283 20.8627 16.5361 21.315 15.4442C21.7673 14.3522 22.0001 13.1819 22.0001 12C22.0001 10.8181 21.7673 9.64776 21.315 8.55582C20.8627 7.46389 20.1998 6.47173 19.364 5.636" fill="black"/>
<path d="M19.364 18.364C20.1998 17.5283 20.8627 16.5361 21.315 15.4442C21.7673 14.3522 22.0001 13.1819 22.0001 12C22.0001 10.8181 21.7673 9.64776 21.315 8.55582C20.8627 7.46389 20.1998 6.47173 19.364 5.636" stroke="black" stroke-width="2" stroke-linecap="round" stroke-linejoin="round"/>
</g>
<defs>
<clipPath id="clip0_263_122">
<rect width="24" height="24" fill="white"/>
</clipPath>
</defs>
</svg>
